<svg width="407" height="283" viewBox="0 0 407 283" fill="none" xmlns="http://www.w3.org/2000/svg">
<g clip-path="url(#clip0_609_108)">
<path d="M13.92 228.9C13.69 228.9 13.51 229.08 13.51 229.31V251.77C13.51 252 13.7 252.19 13.92 252.19H30.12C30.35 252.19 30.53 252 30.53 251.77V248.31C30.53 248.08 30.34 247.9 30.12 247.9H18.82C18.59 247.9 18.41 247.71 18.41 247.49V242.93C18.41 242.7 18.6 242.52 18.82 242.52H28.78C29.01 242.52 29.19 242.34 29.19 242.11V238.65C29.19 238.42 29 238.23 28.78 238.23H18.82C18.59 238.23 18.41 238.05 18.41 237.82V233.62C18.41 233.39 18.6 233.21 18.82 233.21H30.12C30.35 233.21 30.53 233.02 30.53 232.8V229.34C30.53 229.11 30.34 228.93 30.12 228.93H13.92V228.9Z" fill="#F7F7F7"/>
<path d="M58.2 251.54C58 251.81 58.2 252.2 58.54 252.2H63.25C63.39 252.2 63.51 252.13 63.59 252.02L68.79 244.48C68.96 244.24 69.31 244.24 69.47 244.48L74.64 252.02C74.72 252.13 74.85 252.2 74.98 252.2H79.69C80.03 252.2 80.22 251.82 80.03 251.54L72.16 240.53C72.06 240.39 72.06 240.19 72.16 240.05L79.63 229.57C79.83 229.3 79.63 228.92 79.29 228.92H74.58C74.44 228.92 74.31 228.99 74.24 229.1L69.48 236.1C69.32 236.34 68.96 236.34 68.8 236.1L63.97 229.09C63.89 228.98 63.77 228.91 63.63 228.91H58.92C58.58 228.91 58.39 229.29 58.58 229.56L66.08 240.04C66.18 240.18 66.18 240.38 66.08 240.52L58.21 251.53L58.2 251.54Z" fill="#F7F7F7"/>
<path d="M118.09 252.46C121.41 252.46 124.24 251.25 126.32 249.22C126.49 249.05 126.47 248.77 126.29 248.62L123.21 246.09C123.04 245.95 122.8 245.97 122.64 246.12C121.46 247.23 119.86 247.91 118.09 247.91C114.2 247.91 111.35 244.82 111.35 240.56C111.35 236.3 114.2 233.21 118.09 233.21C119.86 233.21 121.46 233.87 122.64 234.97C122.8 235.12 123.04 235.13 123.21 234.99L126.26 232.46C126.44 232.31 126.46 232.03 126.29 231.86C124.23 229.85 121.37 228.65 118.09 228.65C111.35 228.65 106.46 233.64 106.46 240.56C106.46 247.48 111.35 252.47 118.09 252.47V252.46Z" fill="#F7F7F7"/>
<path d="M155.01 251.78C155.01 252.01 155.19 252.2 155.42 252.2H170.94C171.17 252.2 171.35 252.01 171.35 251.78V248.32C171.35 248.09 171.16 247.91 170.94 247.91H160.31C160.08 247.91 159.9 247.72 159.9 247.5V229.33C159.9 229.1 159.72 228.92 159.49 228.92H155.43C155.2 228.92 155.02 229.1 155.02 229.33V251.79L155.01 251.78Z" fill="#F7F7F7"/>
<path d="M208.26 252.46C214.19 252.46 218.51 248.73 218.51 243.54V229.32C218.51 229.09 218.32 228.91 218.1 228.91H214.04C213.81 228.91 213.62 229.09 213.62 229.32V243.58C213.62 246.07 211.34 247.9 208.26 247.9C205.18 247.9 202.9 246.07 202.9 243.58V229.32C202.9 229.09 202.71 228.91 202.49 228.91H198.43C198.2 228.91 198.02 229.09 198.02 229.32V243.54C198.02 248.73 202.31 252.46 208.28 252.46H208.26Z" fill="#F7F7F7"/>
<path d="M246.77 248.81C246.61 248.97 246.61 249.23 246.77 249.39C248.92 251.4 251.76 252.46 255.15 252.46C260.58 252.46 263.93 249.8 263.93 245.44C263.93 237.22 251.97 238.95 251.97 235.06C251.97 233.8 253.11 233.2 254.95 233.2C256.92 233.2 258.53 233.85 259.57 234.91C259.74 235.09 260.03 235.1 260.21 234.93L262.98 232.15C263.12 232.01 263.14 231.78 263.01 231.62C261.45 229.7 258.61 228.64 255.35 228.64C250.36 228.64 247.21 231.2 247.21 235.46C247.21 243.81 259.21 241.88 259.21 245.61C259.21 246.94 257.7 247.91 255.42 247.91C253.45 247.91 251.59 247.18 250.16 245.98C249.99 245.84 249.74 245.84 249.58 246L246.77 248.82V248.81Z" fill="#F7F7F7"/>
<path d="M292.39 251.78C292.39 252.01 292.57 252.2 292.8 252.2H296.86C297.09 252.2 297.27 252.01 297.27 251.78V229.32C297.27 229.09 297.09 228.91 296.86 228.91H292.8C292.57 228.91 292.39 229.09 292.39 229.32V251.78Z" fill="#F7F7F7"/>
<path d="M330.22 228.9C329.99 228.9 329.8 229.08 329.8 229.31V251.77C329.8 252 329.99 252.19 330.22 252.19H346.41C346.64 252.19 346.83 252 346.83 251.77V248.31C346.83 248.08 346.64 247.9 346.41 247.9H335.11C334.88 247.9 334.7 247.71 334.7 247.49V242.93C334.7 242.7 334.88 242.52 335.11 242.52H345.07C345.3 242.52 345.48 242.34 345.48 242.11V238.65C345.48 238.42 345.3 238.23 345.07 238.23H335.11C334.88 238.23 334.7 238.05 334.7 237.82V233.62C334.7 233.39 334.88 233.21 335.11 233.21H346.41C346.64 233.21 346.83 233.02 346.83 232.8V229.34C346.83 229.11 346.64 228.93 346.41 228.93H330.22V228.9Z" fill="#F7F7F7"/>
<path d="M377.77 252.19C378 252.19 378.18 252 378.18 251.77V242.92C378.18 242.69 378.37 242.51 378.59 242.51H388.55C388.78 242.51 388.97 242.33 388.97 242.1V238.64C388.97 238.41 388.78 238.22 388.55 238.22H378.59C378.36 238.22 378.18 238.04 378.18 237.81V233.61C378.18 233.38 378.37 233.2 378.59 233.2H389.89C390.12 233.2 390.3 233.01 390.3 232.79V229.33C390.3 229.1 390.12 228.92 389.89 228.92H373.69C373.46 228.92 373.28 229.1 373.28 229.33V251.79C373.28 252.02 373.46 252.21 373.69 252.21H377.75L377.77 252.19Z" fill="#F7F7F7"/>
<path d="M36.44 206.89C50.85 206.89 60.7 198.74 60.7 186.99C60.7 178.37 55.87 173.06 42.12 166.05C30.27 160.08 26.77 157.33 26.77 153.45C26.77 149.85 30.37 147 35.2 147C40.79 147 45.62 150.22 50.36 156.95L53.08 160.94C53.16 161.05 53.29 161.12 53.43 161.12H56.27C56.51 161.12 56.7 160.92 56.69 160.67L55.6 144.48C55.6 144.34 55.51 144.21 55.38 144.14C50.69 141.73 42.32 140.08 35.97 140.08C22.8 140.08 13.6 147.76 13.6 158.94C13.6 167.19 18.43 172.87 29.43 177.89C42.79 184.05 46.68 187.18 46.68 191.92C46.68 196.66 42.32 199.98 36.63 199.98C29.9 199.98 24.22 195.91 20.05 187.85L17.13 182.29C17.06 182.15 16.92 182.07 16.76 182.07H13.92C13.69 182.07 13.5 182.26 13.5 182.49V200.8C13.5 200.94 13.57 201.07 13.69 201.15C19.11 204.68 27.91 206.9 36.44 206.9V206.89Z" fill="#F7F7F7"/>
<path d="M140.33 205.94C140.54 205.94 140.72 205.78 140.74 205.57L142.91 188.02C142.94 187.77 142.75 187.55 142.49 187.55H139.77C139.63 187.55 139.5 187.62 139.43 187.73L136.05 192.67C131.98 198.45 130.36 199.49 125.06 199.49H115.77C111.13 199.49 109.89 198.26 109.89 193.8V176.68C109.89 176.45 110.08 176.26 110.31 176.26H120.41C123.63 176.26 125.24 177.21 126.85 181.38L128.26 185C128.32 185.16 128.48 185.27 128.65 185.27H131.36C131.59 185.27 131.78 185.08 131.78 184.85V163.13C131.78 162.9 131.59 162.71 131.36 162.71H128.62C128.46 162.71 128.32 162.8 128.25 162.94L126.76 165.84C125.15 168.97 123.82 169.82 120.41 169.82H110.31C110.08 169.82 109.89 169.63 109.89 169.4V147.87C109.89 147.64 110.08 147.45 110.31 147.45H124.77C129.13 147.45 131.12 148.87 134.72 153.8L137.63 157.8C137.71 157.91 137.83 157.97 137.97 157.97H140.82C141.06 157.97 141.25 157.77 141.24 157.53L140.34 141.4C140.33 141.18 140.14 141.01 139.92 141.01H87.28C87.05 141.01 86.86 141.2 86.86 141.43V144.17C86.86 144.32 86.95 144.47 87.08 144.54L89.89 146.03C93.3 147.83 93.87 149.25 93.87 152.38V194.55C93.87 197.68 93.3 199 89.89 200.9L87.08 202.39C86.94 202.46 86.86 202.6 86.86 202.76V205.5C86.86 205.73 87.05 205.92 87.28 205.92H140.32L140.33 205.94Z" fill="#F7F7F7"/>
<path d="M198.53 205.94C198.76 205.94 198.95 205.75 198.95 205.52V202.78C198.95 202.63 198.86 202.48 198.73 202.41L195.92 200.92C192.03 198.83 190.9 197.41 190.9 194.57V179.35C190.9 179.12 191.09 178.93 191.32 178.93H195.34C195.41 178.93 195.48 178.95 195.54 178.98C196.57 179.6 197.86 181.37 199.24 183.86L211.44 205.73C211.51 205.86 211.65 205.94 211.8 205.94H232.37C232.6 205.94 232.79 205.75 232.79 205.52V202.8C232.79 202.63 232.69 202.48 232.54 202.42L229.76 201.2C227.49 200.16 226.06 199.12 225.12 197.41L217.06 182.72C215.62 180.16 213.64 178.21 211.69 177.15C211.34 176.96 211.36 176.4 211.73 176.26C220.42 173.01 225.31 166.85 225.31 159.12C225.31 147.75 215.83 141.02 199.82 141.02H168.3C168.07 141.02 167.88 141.21 167.88 141.44V144.18C167.88 144.33 167.97 144.48 168.1 144.55L170.91 146.04C174.13 147.75 174.89 149.07 174.89 152.39V194.56C174.89 197.88 174.13 199.11 170.91 200.91L168.1 202.4C167.96 202.47 167.88 202.61 167.88 202.77V205.51C167.88 205.74 168.07 205.93 168.3 205.93H198.55L198.53 205.94ZM190.89 147.88C190.89 147.65 191.08 147.46 191.31 147.46H196.48C202.92 147.46 208.33 152.77 208.33 159.12C208.33 166.51 203.21 172.48 196.67 172.48H191.31C191.08 172.48 190.89 172.29 190.89 172.06V147.88Z" fill="#F7F7F7"/>
<path d="M284.28 205.94C284.51 205.94 284.7 205.75 284.7 205.52V202.78C284.7 202.63 284.61 202.48 284.48 202.41L281.67 200.92C277.78 198.83 276.65 197.41 276.65 194.57V179.35C276.65 179.12 276.84 178.93 277.07 178.93H281.09C281.16 178.93 281.23 178.95 281.29 178.98C282.32 179.6 283.61 181.37 284.99 183.86L297.19 205.73C297.26 205.86 297.4 205.94 297.55 205.94H318.12C318.35 205.94 318.54 205.75 318.54 205.52V202.8C318.54 202.63 318.44 202.48 318.29 202.42L315.51 201.2C313.24 200.16 311.81 199.12 310.87 197.41L302.81 182.72C301.37 180.16 299.39 178.21 297.44 177.15C297.09 176.96 297.11 176.4 297.48 176.26C306.17 173.01 311.06 166.85 311.06 159.12C311.06 147.75 301.58 141.02 285.57 141.02H254.05C253.82 141.02 253.63 141.21 253.63 141.44V144.18C253.63 144.33 253.72 144.48 253.85 144.55L256.66 146.04C259.88 147.75 260.64 149.07 260.64 152.39V194.56C260.64 197.88 259.88 199.11 256.66 200.91L253.85 202.4C253.71 202.47 253.63 202.61 253.63 202.77V205.51C253.63 205.74 253.82 205.93 254.05 205.93H284.3L284.28 205.94ZM276.64 147.88C276.64 147.65 276.83 147.46 277.06 147.46H282.23C288.67 147.46 294.08 152.77 294.08 159.12C294.08 166.51 288.96 172.48 282.42 172.48H277.06C276.83 172.48 276.64 172.29 276.64 172.06V147.88Z" fill="#F7F7F7"/>
<path d="M390.86 205.94C391.07 205.94 391.25 205.78 391.28 205.57L393.45 188.02C393.48 187.77 393.29 187.55 393.04 187.55H390.32C390.18 187.55 390.05 187.62 389.98 187.73L386.6 192.67C382.52 198.45 380.91 199.49 375.61 199.49H366.32C361.68 199.49 360.44 198.26 360.44 193.8V176.68C360.44 176.45 360.63 176.26 360.86 176.26H370.96C374.18 176.26 375.79 177.21 377.4 181.38L378.81 185C378.87 185.16 379.03 185.27 379.2 185.27H381.91C382.14 185.27 382.33 185.08 382.33 184.85V163.13C382.33 162.9 382.14 162.71 381.91 162.71H379.17C379.01 162.71 378.87 162.8 378.8 162.94L377.31 165.84C375.7 168.97 374.37 169.82 370.96 169.82H360.86C360.63 169.82 360.44 169.63 360.44 169.4V147.87C360.44 147.64 360.63 147.45 360.86 147.45H375.32C379.68 147.45 381.67 148.87 385.27 153.8L388.18 157.8C388.26 157.91 388.38 157.97 388.52 157.97H391.37C391.61 157.97 391.8 157.77 391.79 157.53L390.89 141.4C390.88 141.18 390.69 141.01 390.47 141.01H337.83C337.6 141.01 337.41 141.2 337.41 141.43V144.17C337.41 144.32 337.49 144.47 337.63 144.54L340.44 146.03C343.85 147.83 344.42 149.25 344.42 152.38V194.55C344.42 197.68 343.85 199 340.44 200.9L337.63 202.39C337.49 202.46 337.41 202.6 337.41 202.76V205.5C337.41 205.73 337.6 205.92 337.83 205.92H390.87L390.86 205.94Z" fill="#F7F7F7"/>
<path d="M405.99 282.3H0.99C0.44 282.3 0 281.85 0 281.3V275.3C0 274.75 0.44 274.3 0.99 274.3H405.99C406.54 274.3 406.98 274.75 406.98 275.3V281.3C406.98 281.85 406.54 282.3 405.99 282.3Z" fill="#D69977"/>
<path d="M406.43 116.57L319.72 72.47C288.28 56.47 239.67 31.76 208.03 15.67C207.69 15.5 207.49 15.16 207.49 14.78V2.52C207.49 2.14 207.28 1.8 206.94 1.63L203.94 0.110005C203.65 -0.0299951 203.32 -0.0299951 203.03 0.110005L200.03 1.64C199.7 1.81 199.48 2.15 199.48 2.53V14.77C199.48 15.15 199.27 15.49 198.94 15.66C140.6 45.34 60.15 86.26 0.549995 116.57C-0.390005 117.05 -0.0500051 118.46 0.999995 118.46H405.98C407.03 118.46 407.37 117.05 406.43 116.57ZM207.49 25.17C207.49 24.8 207.88 24.56 208.22 24.72L247.35 44.62C248.01 44.95 248.21 45.8 247.78 46.39L225.13 77.72C224.85 78.11 224.34 78.24 223.91 78.04C219.1 75.82 213.88 74.37 208.4 73.82C207.89 73.77 207.5 73.35 207.5 72.83V25.17H207.49ZM159.67 44.61L198.76 24.73C199.09 24.56 199.49 24.8 199.49 25.18V72.85C199.49 73.36 199.1 73.79 198.59 73.84C193.12 74.39 187.9 75.84 183.11 78.04C182.68 78.24 182.17 78.11 181.89 77.72L159.24 46.39C158.81 45.79 159.01 44.95 159.67 44.62V44.61ZM158.96 102.15C157.84 104.57 156.92 107.1 156.21 109.71C156.09 110.15 155.7 110.45 155.25 110.45H31.88C31.46 110.45 31.32 109.88 31.7 109.69L96.38 76.8C96.89 76.54 97.49 76.51 98.03 76.72L158.44 100.79C158.98 101 159.21 101.62 158.97 102.14L158.96 102.15ZM162.83 93.95L107.69 71.98C107.29 71.82 107.27 71.26 107.65 71.07L150.06 49.5C150.72 49.17 151.52 49.36 151.96 49.96L174.85 81.63C175.17 82.08 175.07 82.69 174.62 83.02C170.56 85.98 166.97 89.56 164 93.61C163.73 93.98 163.25 94.12 162.83 93.95ZM241.26 110.46H165.68C165.01 110.46 164.51 109.8 164.72 109.17C174.9 77.45 220.79 71.75 238.12 100.67C239.82 103.33 241.18 106.16 242.22 109.14C242.44 109.78 241.95 110.46 241.27 110.46H241.26ZM242.98 93.62C240.01 89.58 236.43 86.01 232.38 83.04C231.94 82.71 231.83 82.1 232.15 81.65L255.05 49.98C255.48 49.38 256.29 49.19 256.95 49.52L299.35 71.08C299.73 71.27 299.71 71.83 299.31 71.99L244.15 93.97C243.73 94.14 243.25 94 242.98 93.63V93.62ZM375.09 110.46H251.71C251.26 110.46 250.87 110.15 250.75 109.72C250.05 107.11 249.12 104.59 248.01 102.18C247.77 101.66 248.01 101.04 248.54 100.83L308.97 76.75C309.5 76.54 310.1 76.56 310.62 76.83L375.27 109.71C375.64 109.9 375.51 110.47 375.09 110.47V110.46Z" fill="#D69977"/>
</g>
<defs>
<clipPath id="clip0_609_108">
<rect width="406.98" height="282.3" fill="white"/>
</clipPath>
</defs>
</svg>
