<svg width="1349" height="294" viewBox="0 0 1349 294" fill="none" xmlns="http://www.w3.org/2000/svg">
<g clip-path="url(#clip0_105_7591)">
<g opacity="0.08">
<mask id="path-1-outside-1_105_7591" maskUnits="userSpaceOnUse" x="-2" y="-1" width="1353" height="346" fill="black">
<rect fill="white" x="-2" y="-1" width="1353" height="346"/>
<path fill-rule="evenodd" clip-rule="evenodd" d="M1306.51 316.211L675.672 0.277076C674.934 -0.0923571 674.066 -0.0923596 673.328 0.277074L42.4903 316.211L42.4901 344H1306.51V316.211ZM1051.32 218.687C1052 218.429 1052.76 218.468 1053.42 218.795L1246.06 315.275C1247.3 315.894 1246.86 317.76 1245.48 317.76H844.442C843.169 317.76 842.083 316.843 841.848 315.59C840.969 310.91 839.9 306.298 838.648 301.762C838.284 300.441 838.974 299.053 840.254 298.568L1051.32 218.687ZM1014.9 204.427C1017.03 203.619 1017.19 200.65 1015.14 199.627L854.513 119.181C853.356 118.602 851.95 118.954 851.203 120.011L784.685 214.109C783.895 215.227 784.098 216.765 785.138 217.655C802.825 232.808 817.374 251.527 827.675 272.7C828.274 273.931 829.708 274.515 830.988 274.031L1014.9 204.427ZM827.034 108.797C827.961 107.485 827.503 105.654 826.067 104.935L691.39 37.4863C689.648 36.614 687.598 37.8823 687.598 39.8326V174.829C687.598 176.201 688.654 177.339 690.018 177.462C715.284 179.748 738.957 187.56 759.824 199.681C761.008 200.37 762.526 200.052 763.317 198.932L827.034 108.797ZM661.401 39.8327C661.401 37.8825 659.351 36.6141 657.61 37.4865L522.933 104.935C521.497 105.654 521.039 107.485 521.966 108.797L585.683 198.932C586.474 200.052 587.992 200.37 589.176 199.682C610.043 187.56 633.716 179.748 658.981 177.462C660.346 177.339 661.401 176.201 661.401 174.829V39.8327ZM497.797 120.011C497.05 118.954 495.644 118.602 494.487 119.181L333.857 199.627C331.814 200.65 331.966 203.619 334.103 204.427L518.013 274.031C519.292 274.516 520.727 273.931 521.326 272.7C531.626 251.527 546.175 232.808 563.862 217.655C564.902 216.765 565.105 215.228 564.315 214.109L497.797 120.011ZM297.682 218.687C296.998 218.428 296.238 218.468 295.584 218.795L102.938 315.275C101.702 315.894 102.142 317.76 103.524 317.76H504.558C505.831 317.76 506.918 316.843 507.153 315.59C508.031 310.911 509.1 306.298 510.352 301.762C510.716 300.442 510.026 299.053 508.746 298.569L297.682 218.687ZM534.125 314.605C533.751 316.226 534.992 317.76 536.654 317.76H812.347C814.008 317.76 815.25 316.226 814.875 314.605C800.091 250.659 742.854 202.997 674.5 202.997C606.146 202.997 548.909 250.659 534.125 314.605Z"/>
<path d="M1303.24 344H1345.72C1349.13 344 1350.27 339.422 1347.25 337.823L1303.24 314.488V344Z"/>
<path d="M45.7648 344H3.27982C-0.134598 344 -1.26998 339.422 1.74764 337.823L45.7648 314.488V344Z"/>
</mask>
<path d="M1306.51 316.211H1307.51V315.594L1306.96 315.317L1306.51 316.211ZM42.4903 316.211L42.0425 315.317L41.4903 315.594L41.4903 316.211L42.4903 316.211ZM42.4901 344L41.4901 344L41.4901 345H42.4901V344ZM1306.51 344V345H1307.51V344H1306.51ZM814.875 314.605L815.849 314.38L814.875 314.605ZM534.125 314.605L533.151 314.38L534.125 314.605ZM510.352 301.762L509.388 301.496L510.352 301.762ZM508.746 298.569L508.393 299.504L508.746 298.569ZM507.153 315.59L506.17 315.406L506.17 315.406L507.153 315.59ZM102.938 315.275L102.491 314.381L102.491 314.381L102.938 315.275ZM295.584 218.795L296.032 219.689L296.032 219.689L295.584 218.795ZM297.682 218.687L298.036 217.752L298.036 217.752L297.682 218.687ZM563.862 217.655L563.212 216.896L563.212 216.896L563.862 217.655ZM564.315 214.109L563.498 214.687L563.498 214.687L564.315 214.109ZM333.857 199.627L333.41 198.733L333.857 199.627ZM334.103 204.427L334.457 203.492L334.457 203.492L334.103 204.427ZM494.487 119.181L494.935 120.075L494.935 120.075L494.487 119.181ZM497.797 120.011L498.614 119.434L498.614 119.434L497.797 120.011ZM658.981 177.462L658.891 176.466L658.981 177.462ZM585.683 198.932L586.499 198.355L586.499 198.355L585.683 198.932ZM589.176 199.682L588.674 198.817L589.176 199.682ZM522.933 104.935L523.38 105.829L523.38 105.829L522.933 104.935ZM521.966 108.797L521.15 109.374L521.15 109.374L521.966 108.797ZM657.61 37.4865L657.162 36.5924L657.162 36.5924L657.61 37.4865ZM759.824 199.681L759.321 200.546L759.824 199.681ZM763.317 198.932L762.501 198.355L762.501 198.355L763.317 198.932ZM690.018 177.462L689.928 178.458L690.018 177.462ZM691.39 37.4863L690.942 38.3804L690.942 38.3804L691.39 37.4863ZM826.067 104.935L826.515 104.041L826.515 104.041L826.067 104.935ZM827.034 108.797L827.85 109.374L827.85 109.374L827.034 108.797ZM827.675 272.7L826.775 273.137L827.675 272.7ZM830.988 274.031L831.342 274.966L831.342 274.966L830.988 274.031ZM854.513 119.181L854.065 120.075L854.065 120.075L854.513 119.181ZM851.203 120.011L852.019 120.589L852.019 120.589L851.203 120.011ZM1015.14 199.627L1015.59 198.733L1015.59 198.733L1015.14 199.627ZM1014.9 204.427L1014.54 203.492L1014.54 203.492L1014.9 204.427ZM838.648 301.762L837.684 302.028L838.648 301.762ZM840.254 298.568L839.9 297.633L840.254 298.568ZM841.848 315.59L840.865 315.775L841.848 315.59ZM1053.42 218.795L1052.97 219.689L1052.97 219.689L1053.42 218.795ZM1051.32 218.687L1051.67 219.623L1051.32 218.687ZM1246.06 315.275L1246.51 314.381L1246.51 314.381L1246.06 315.275ZM784.685 214.109L783.869 213.532L783.869 213.532L784.685 214.109ZM785.138 217.655L785.788 216.896L785.138 217.655ZM518.013 274.031L517.659 274.967L517.659 274.967L518.013 274.031ZM521.326 272.7L522.225 273.137L522.225 273.137L521.326 272.7ZM675.672 0.277076L676.12 -0.617059L676.12 -0.617059L675.672 0.277076ZM673.328 0.277074L672.88 -0.617061L672.88 -0.617061L673.328 0.277074ZM1303.24 344H1302.24V345H1303.24V344ZM1303.24 314.488L1303.7 313.604L1302.24 312.826V314.488H1303.24ZM1347.25 337.823L1347.72 336.939L1347.72 336.939L1347.25 337.823ZM45.7648 344V345H46.7648V344H45.7648ZM45.7648 314.488H46.7648V312.826L45.2964 313.604L45.7648 314.488ZM1.74764 337.823L1.27926 336.939L1.27926 336.939L1.74764 337.823ZM675.224 1.17121L1306.06 317.105L1306.96 315.317L676.12 -0.617059L675.224 1.17121ZM42.938 317.105L673.776 1.17121L672.88 -0.617061L42.0425 315.317L42.938 317.105ZM43.4901 344L43.4903 316.211L41.4903 316.211L41.4901 344L43.4901 344ZM1306.51 343H42.4901V345H1306.51V343ZM1305.51 316.211V344H1307.51V316.211H1305.51ZM1246.51 314.381L1053.86 217.901L1052.97 219.689L1245.61 316.169L1246.51 314.381ZM844.442 318.76H1245.48V316.76H844.442V318.76ZM842.83 315.406C841.947 310.698 840.871 306.059 839.612 301.496L837.684 302.028C838.929 306.538 839.992 311.122 840.865 315.775L842.83 315.406ZM840.608 299.504L1051.67 219.623L1050.96 217.752L839.9 297.633L840.608 299.504ZM1015.59 198.733L854.96 118.287L854.065 120.075L1014.69 200.521L1015.59 198.733ZM785.502 214.686L852.019 120.589L850.386 119.434L783.869 213.532L785.502 214.686ZM828.574 272.262C818.213 250.965 803.579 232.136 785.788 216.896L784.487 218.415C802.072 233.479 816.536 252.088 826.775 273.137L828.574 272.262ZM1014.54 203.492L830.634 273.096L831.342 274.966L1015.25 205.362L1014.54 203.492ZM826.515 104.041L691.838 36.5922L690.942 38.3804L825.619 105.829L826.515 104.041ZM688.598 174.829V39.8326H686.598V174.829H688.598ZM760.326 198.817C739.336 186.624 715.523 178.765 690.108 176.466L689.928 178.458C715.045 180.73 738.578 188.496 759.321 200.546L760.326 198.817ZM826.217 108.22L762.501 198.355L764.134 199.509L827.85 109.374L826.217 108.22ZM657.162 36.5924L522.485 104.041L523.38 105.829L658.057 38.3806L657.162 36.5924ZM586.499 198.355L522.783 108.22L521.15 109.374L584.866 199.509L586.499 198.355ZM658.891 176.466C633.477 178.766 609.663 186.624 588.674 198.817L589.679 200.546C610.422 188.496 633.955 180.731 659.071 178.458L658.891 176.466ZM660.401 39.8327V174.829H662.401V39.8327H660.401ZM494.039 118.287L333.41 198.733L334.305 200.521L494.935 120.075L494.039 118.287ZM518.367 273.096L334.457 203.492L333.749 205.362L517.659 274.967L518.367 273.096ZM563.212 216.896C545.421 232.137 530.787 250.965 520.427 272.262L522.225 273.137C532.464 252.089 546.929 233.479 564.513 218.415L563.212 216.896ZM496.981 120.589L563.498 214.687L565.131 213.532L498.614 119.434L496.981 120.589ZM295.136 217.901L102.491 314.381L103.386 316.169L296.032 219.689L295.136 217.901ZM103.524 318.76H504.558V316.76H103.524V318.76ZM509.388 301.496C508.129 306.059 507.053 310.699 506.17 315.406L508.136 315.775C509.009 311.123 510.072 306.538 511.316 302.028L509.388 301.496ZM297.328 219.623L508.393 299.504L509.1 297.633L298.036 217.752L297.328 219.623ZM536.654 318.76H812.347V316.76H536.654V318.76ZM674.5 203.997C742.377 203.997 799.219 251.327 813.901 314.831L815.849 314.38C800.963 249.991 743.331 201.997 674.5 201.997V203.997ZM535.1 314.831C549.781 251.327 606.623 203.997 674.5 203.997V201.997C605.67 201.997 548.038 249.991 533.151 314.38L535.1 314.831ZM812.347 318.76C814.64 318.76 816.372 316.639 815.849 314.38L813.901 314.831C814.128 315.813 813.376 316.76 812.347 316.76V318.76ZM536.654 316.76C535.624 316.76 534.872 315.813 535.1 314.831L533.151 314.38C532.629 316.639 534.361 318.76 536.654 318.76V316.76ZM511.316 302.028C511.815 300.219 510.873 298.304 509.1 297.633L508.393 299.504C509.18 299.802 509.618 300.664 509.388 301.496L511.316 302.028ZM504.558 318.76C506.321 318.76 507.813 317.492 508.136 315.775L506.17 315.406C506.022 316.194 505.341 316.76 504.558 316.76V318.76ZM102.491 314.381C100.314 315.471 101.084 318.76 103.524 318.76V316.76C103.416 316.76 103.36 316.728 103.325 316.698C103.282 316.661 103.242 316.6 103.223 316.52C103.204 316.44 103.213 316.367 103.235 316.315C103.253 316.272 103.289 316.218 103.386 316.169L102.491 314.381ZM296.032 219.689C296.436 219.487 296.906 219.463 297.328 219.623L298.036 217.752C297.091 217.394 296.04 217.448 295.136 217.901L296.032 219.689ZM564.513 218.415C565.938 217.194 566.225 215.079 565.131 213.532L563.498 214.687C563.986 215.376 563.866 216.336 563.212 216.896L564.513 218.415ZM333.41 198.733C330.588 200.146 330.797 204.245 333.749 205.362L334.457 203.492C333.136 202.992 333.041 201.154 334.305 200.521L333.41 198.733ZM494.935 120.075C495.65 119.717 496.518 119.935 496.981 120.589L498.614 119.434C497.582 117.974 495.639 117.486 494.039 118.287L494.935 120.075ZM659.071 178.458C660.943 178.289 662.401 176.726 662.401 174.829H660.401C660.401 175.676 659.748 176.389 658.891 176.466L659.071 178.458ZM584.866 199.509C585.961 201.059 588.054 201.49 589.679 200.546L588.674 198.817C587.93 199.249 586.987 199.045 586.499 198.355L584.866 199.509ZM522.485 104.041C520.501 105.034 519.869 107.563 521.15 109.374L522.783 108.22C522.208 107.407 522.493 106.274 523.38 105.829L522.485 104.041ZM658.057 38.3806C659.132 37.8423 660.401 38.624 660.401 39.8327H662.401C662.401 37.141 659.571 35.386 657.162 36.5924L658.057 38.3806ZM759.321 200.546C760.946 201.49 763.039 201.059 764.134 199.509L762.501 198.355C762.013 199.045 761.07 199.249 760.326 198.817L759.321 200.546ZM686.598 174.829C686.598 176.726 688.057 178.289 689.928 178.458L690.108 176.466C689.252 176.389 688.598 175.676 688.598 174.829H686.598ZM691.838 36.5922C689.429 35.3858 686.598 37.1409 686.598 39.8326H688.598C688.598 38.6237 689.867 37.8421 690.942 38.3804L691.838 36.5922ZM825.619 105.829C826.507 106.274 826.792 107.407 826.217 108.22L827.85 109.374C829.131 107.563 828.499 105.034 826.515 104.041L825.619 105.829ZM826.775 273.137C827.596 274.825 829.569 275.637 831.342 274.966L830.634 273.096C829.847 273.394 828.951 273.038 828.574 272.262L826.775 273.137ZM854.96 118.287C853.361 117.486 851.418 117.974 850.386 119.434L852.019 120.589C852.482 119.935 853.35 119.717 854.065 120.075L854.96 118.287ZM1014.69 200.521C1015.96 201.154 1015.86 202.992 1014.54 203.492L1015.25 205.362C1018.2 204.245 1018.41 200.146 1015.59 198.733L1014.69 200.521ZM839.612 301.496C839.383 300.664 839.82 299.802 840.608 299.504L839.9 297.633C838.128 298.304 837.185 300.219 837.684 302.028L839.612 301.496ZM844.442 316.76C843.659 316.76 842.978 316.194 842.83 315.406L840.865 315.775C841.187 317.492 842.679 318.76 844.442 318.76V316.76ZM1053.86 217.901C1052.96 217.448 1051.91 217.394 1050.96 217.752L1051.67 219.623C1052.09 219.463 1052.56 219.487 1052.97 219.689L1053.86 217.901ZM1245.61 316.169C1245.71 316.218 1245.75 316.272 1245.77 316.315C1245.79 316.367 1245.8 316.44 1245.78 316.52C1245.76 316.6 1245.72 316.661 1245.67 316.698C1245.64 316.728 1245.58 316.76 1245.48 316.76V318.76C1247.92 318.76 1248.69 315.471 1246.51 314.381L1245.61 316.169ZM783.869 213.532C782.775 215.079 783.062 217.194 784.487 218.415L785.788 216.896C785.134 216.336 785.014 215.376 785.502 214.686L783.869 213.532ZM517.659 274.967C519.431 275.637 521.404 274.825 522.225 273.137L520.427 272.262C520.049 273.038 519.154 273.394 518.367 273.096L517.659 274.967ZM676.12 -0.617059C675.1 -1.12764 673.9 -1.12765 672.88 -0.617061L673.776 1.17121C674.232 0.94293 674.768 0.94293 675.224 1.17121L676.12 -0.617059ZM1345.72 343H1303.24V345H1345.72V343ZM1304.24 344V314.488H1302.24V344H1304.24ZM1347.72 336.939L1303.7 313.604L1302.77 315.371L1346.78 338.706L1347.72 336.939ZM1345.72 345C1350.18 345 1351.66 339.026 1347.72 336.939L1346.78 338.706C1348.88 339.819 1348.09 343 1345.72 343V345ZM3.27982 345H45.7648V343H3.27982V345ZM46.7648 344V314.488H44.7648V344H46.7648ZM2.21603 338.706L46.2332 315.371L45.2964 313.604L1.27926 336.939L2.21603 338.706ZM3.27982 343C0.911104 343 0.116432 339.819 2.21603 338.706L1.27926 336.939C-2.65638 339.026 -1.1803 345 3.27982 345V343Z" fill="#203845" mask="url(#path-1-outside-1_105_7591)"/>
</g>
</g>
<defs>
<clipPath id="clip0_105_7591">
<rect width="1349" height="294" fill="white"/>
</clipPath>
</defs>
</svg>
